<svg xmlns="http://www.w3.org/2000/svg" aria-hidden="true" style="position:absolute;width:0;height:0;overflow:hidden">
  <defs>
 
   
<symbol id="icon-truck" viewBox="0 0 60 32">
<path fill="#fff" style="fill: var(--color1, #fff)" opacity="0.4" d="M12.752 23.675c-2.342 0-4.164 1.821-4.164 4.163s1.822 4.163 4.164 4.163 4.164-1.821 4.164-4.163c0-2.341-1.822-4.163-4.164-4.163zM37.474 0h-2.082v5.073h7.807l-5.725-5.073zM0.26 28.618h5.205c0 0 0.26-7.805 7.807-7.805 5.595 0 6.506 7.805 6.506 7.805h13.012v-28.618h-32.79l0.26 28.618zM49.445 23.675c-2.342 0-4.164 1.821-4.164 4.163s1.822 4.163 4.164 4.163c2.342 0 4.164-1.821 4.164-4.163s-1.952-4.163-4.164-4.163zM44.501 6.504h-9.108v22.114h7.807c0 0-1.041-6.504 6.506-6.504 5.725 0 5.595 6.504 5.595 6.504h4.814l0.26-9.756-15.875-12.358zM43.2 23.415h-5.205v-2.602h5.205v2.602zM42.679 18.732l-5.205-3.122v-7.285h5.205l13.532 10.406h-13.532z"></path>
</symbol>
<symbol id="icon-mail" viewBox="0 0 32 32">
<path fill="#fff" style="fill: var(--color1, #fff)" opacity="0.4" d="M28.093 3.824h-24.18c-2.159 0-3.913 1.755-3.913 3.913v16.526c0 2.159 1.755 3.913 3.913 3.913h24.174c2.159 0 3.913-1.755 3.913-3.913v-16.52c0.007-2.159-1.748-3.92-3.907-3.92zM30.219 24.263c0 1.172-0.954 2.125-2.125 2.125h-24.18c-1.172 0-2.125-0.953-2.125-2.125v-16.52c0-1.172 0.953-2.125 2.125-2.125h24.174c1.172 0 2.125 0.953 2.125 2.125v16.52h0.007z"></path>
<path fill="#fff" style="fill: var(--color1, #fff)" opacity="0.4" d="M20.181 15.795l7.826-7.018c0.364-0.331 0.397-0.894 0.066-1.265-0.331-0.364-0.894-0.397-1.265-0.066l-10.792 9.687-2.105-1.88c-0.007-0.007-0.013-0.013-0.013-0.020-0.046-0.046-0.093-0.086-0.146-0.126l-8.568-7.667c-0.371-0.331-0.934-0.298-1.265 0.073s-0.298 0.934 0.073 1.265l7.919 7.078-7.886 7.383c-0.358 0.338-0.377 0.9-0.040 1.264 0.179 0.185 0.417 0.285 0.655 0.285 0.218 0 0.437-0.080 0.609-0.238l8.005-7.489 2.172 1.94c0.172 0.152 0.384 0.225 0.596 0.225s0.43-0.079 0.596-0.232l2.231-2 7.959 7.561c0.172 0.166 0.398 0.245 0.616 0.245 0.238 0 0.47-0.093 0.649-0.278 0.338-0.358 0.325-0.927-0.033-1.265l-7.859-7.462z"></path>
</symbol>

   <symbol id="icon-instagram" viewBox="0 0 32 32">
      <path fill="#fff" style="fill: var(--color1, #fff); stroke: var(--color2, #f13c6e)" stroke="#f13c6e" stroke-linejoin="miter" stroke-linecap="butt" stroke-miterlimit="4"  stroke-width="1.4222" d="M31.968 9.408c-.074-1.701-.349-2.869-.742-3.882a7.839 7.839 0 0 0-1.85-2.837l-.001-.001A7.906 7.906 0 0 0 26.597.861l-.054-.018C25.524.449 24.362.176 22.661.101 20.949.019 20.405 0 16.059 0c-4.344 0-4.888.019-6.595.094-1.699.074-2.869.349-3.88.742a7.847 7.847 0 0 0-2.839 1.85l-.001.001A7.9 7.9 0 0 0 .919 5.465l-.018.054C.506 6.538.232 7.7.157 9.401c-.082 1.712-.101 2.256-.101 6.602 0 4.344.019 4.888.094 6.595.075 1.701.35 2.869.744 3.882a7.915 7.915 0 0 0 1.849 2.837l.001.001c.8.813 1.77 1.443 2.832 1.843 1.019.395 2.182.67 3.882.744 1.707.075 2.251.094 6.595.094 4.346 0 4.89-.019 6.595-.094 1.701-.074 2.869-.349 3.882-.742a8.237 8.237 0 0 0 4.664-4.628l.019-.055c.394-1.019.669-2.182.744-3.882.075-1.707.093-2.251.093-6.595s-.006-4.888-.08-6.595zm-2.88 13.066c-.07 1.563-.333 2.406-.55 2.97a5.341 5.341 0 0 1-3.004 3.024l-.036.012c-.56.219-1.411.482-2.968.55-1.688.075-2.194.094-6.464.094-4.269 0-4.782-.019-6.464-.094-1.563-.069-2.406-.331-2.97-.55a4.953 4.953 0 0 1-1.836-1.192l-.001-.001a4.978 4.978 0 0 1-1.184-1.803L3.6 25.45c-.218-.563-.48-1.413-.549-2.97-.075-1.688-.094-2.195-.094-6.464 0-4.27.019-4.784.094-6.464.069-1.563.331-2.406.549-2.97a4.897 4.897 0 0 1 1.198-1.837l.002-.002a4.972 4.972 0 0 1 1.806-1.182l.034-.011c.56-.219 1.411-.48 2.968-.55 1.688-.074 2.195-.093 6.464-.093 4.275 0 4.782.019 6.464.093 1.563.069 2.406.331 2.97.55a4.91 4.91 0 0 1 1.837 1.194c.531.52.938 1.144 1.195 1.84.218.56.48 1.411.549 2.968.075 1.688.094 2.194.094 6.464 0 4.269-.019 4.768-.094 6.458z"/>
      <path fill="#f13c6e" style="fill: var(--color2, #f13c6e)"  d="M16.059 7.782a8.223 8.223 0 0 0-8.219 8.221 8.223 8.223 0 0 0 16.442.008v-.009a8.223 8.223 0 0 0-8.221-8.221zm0 13.552a5.333 5.333 0 0 1 .001-10.666h.001a5.334 5.334 0 1 1 0 10.668zM26.525 7.458a1.92 1.92 0 0 1-3.84 0 1.92 1.92 0 0 1 3.84 0z"/>
    </symbol>

   <symbol id="icon-facebook" viewBox="0 0 19 32">
<path fill="#f13c6e" style="fill: var(--color1, #f13c6e)" d="M17.599 0.007l-4.15-0.007c-4.662 0-7.675 3.091-7.675 7.875v3.631h-4.172c-0.361 0-0.652 0.292-0.652 0.653v5.261c0 0.36 0.292 0.652 0.652 0.652h4.172v13.275c0 0.36 0.292 0.652 0.652 0.652h5.444c0.361 0 0.652-0.292 0.652-0.652v-13.275h4.878c0.361 0 0.652-0.292 0.652-0.652l0.002-5.261c0-0.173-0.069-0.339-0.191-0.461s-0.289-0.191-0.462-0.191h-4.88v-3.078c0-1.479 0.353-2.23 2.28-2.23l2.795-0.001c0.36 0 0.652-0.292 0.652-0.652v-4.885c0-0.36-0.292-0.652-0.652-0.652z"></path>
</symbol>

  <symbol id="icon-youtube" viewBox="0 0 32 32">
<path fill="#fff" style="fill: var(--color1, #fff); stroke: var(--color2, #f13c6e)" stroke="#f13c6e" stroke-linejoin="miter" stroke-linecap="butt" stroke-miterlimit="4" stroke-width="1.4222" d="M31.289 16c0 8.444-6.845 15.289-15.289 15.289s-15.289-6.845-15.289-15.289c0-8.444 6.845-15.289 15.289-15.289s15.289 6.845 15.289 15.289z"></path>
<path fill="#f13c6e" style="fill: var(--color2, #f13c6e)" d="M20.32 10.667h-9.222c-1.809 0-3.276 1.495-3.276 3.339v4.699c0 1.844 1.467 3.339 3.276 3.339h9.222c1.809 0 3.276-1.495 3.276-3.339v-4.699c0-1.844-1.467-3.339-3.276-3.339zM18.104 16.584l-4.313 2.097c-0.115 0.056-0.248-0.030-0.248-0.159v-4.325c0-0.132 0.136-0.217 0.251-0.157l4.313 2.228c0.128 0.066 0.126 0.254-0.004 0.317z"></path>
</symbol>
<symbol id="icon-VK" viewBox="0 0 32 32">
<path fill="#fff" style="fill: var(--color1, #fff); stroke: var(--color2, #f13c6e)" stroke="#f13c6e" stroke-linejoin="miter" stroke-linecap="butt" stroke-miterlimit="4" stroke-width="1.4222" d="M31.289 16c0 8.444-6.845 15.289-15.289 15.289s-15.289-6.845-15.289-15.289c0-8.444 6.845-15.289 15.289-15.289s15.289 6.845 15.289 15.289z"></path>
<path fill="#f13c6e" style="fill: var(--color2, #f13c6e)" d="M25.525 20.942c-0.024-0.052-0.047-0.095-0.068-0.13-0.346-0.623-1.007-1.388-1.983-2.295l-0.021-0.021-0.021-0.021h-0.011c-0.443-0.422-0.723-0.706-0.841-0.852-0.215-0.277-0.263-0.557-0.146-0.841 0.083-0.215 0.395-0.668 0.934-1.36 0.284-0.367 0.509-0.661 0.675-0.883 1.198-1.592 1.717-2.61 1.558-3.053l-0.062-0.104c-0.042-0.062-0.149-0.119-0.322-0.171s-0.395-0.060-0.665-0.026l-2.99 0.021c-0.049-0.017-0.118-0.016-0.208 0.005s-0.135 0.031-0.135 0.031l-0.052 0.026-0.041 0.031c-0.035 0.021-0.073 0.057-0.114 0.109s-0.076 0.113-0.104 0.182c-0.326 0.838-0.696 1.616-1.111 2.336-0.256 0.429-0.491 0.801-0.706 1.116s-0.395 0.547-0.54 0.696c-0.145 0.149-0.277 0.268-0.395 0.358s-0.208 0.128-0.27 0.114c-0.062-0.014-0.121-0.028-0.177-0.042-0.097-0.062-0.175-0.147-0.233-0.254s-0.099-0.242-0.119-0.405c-0.021-0.163-0.033-0.303-0.036-0.42s-0.002-0.284 0.005-0.498c0.007-0.215 0.010-0.36 0.010-0.436 0-0.263 0.005-0.549 0.015-0.857s0.019-0.552 0.026-0.732c0.007-0.18 0.010-0.37 0.010-0.571s-0.012-0.358-0.036-0.472c-0.024-0.114-0.060-0.225-0.109-0.332s-0.12-0.19-0.213-0.249c-0.093-0.059-0.21-0.106-0.348-0.14-0.367-0.083-0.834-0.128-1.402-0.135-1.287-0.014-2.115 0.069-2.482 0.249-0.145 0.076-0.277 0.18-0.395 0.311-0.125 0.152-0.142 0.235-0.052 0.249 0.415 0.062 0.709 0.211 0.883 0.446l0.062 0.125c0.049 0.090 0.097 0.249 0.145 0.478s0.080 0.481 0.093 0.758c0.035 0.505 0.035 0.938 0 1.298s-0.067 0.64-0.099 0.841c-0.031 0.201-0.078 0.363-0.14 0.488s-0.104 0.201-0.125 0.228c-0.021 0.028-0.038 0.045-0.052 0.052-0.090 0.035-0.184 0.052-0.28 0.052s-0.215-0.049-0.353-0.145c-0.138-0.097-0.282-0.23-0.431-0.4s-0.317-0.407-0.504-0.711c-0.187-0.305-0.381-0.664-0.581-1.080l-0.166-0.301c-0.104-0.194-0.246-0.476-0.426-0.846s-0.339-0.729-0.478-1.075c-0.055-0.145-0.138-0.256-0.249-0.332l-0.052-0.031c-0.035-0.028-0.090-0.057-0.166-0.088s-0.156-0.054-0.239-0.068l-2.845 0.021c-0.291 0-0.488 0.066-0.592 0.197l-0.042 0.062c-0.021 0.035-0.031 0.090-0.031 0.166s0.021 0.17 0.062 0.28c0.415 0.976 0.867 1.917 1.355 2.824s0.912 1.637 1.272 2.191c0.36 0.554 0.727 1.077 1.101 1.568s0.621 0.806 0.742 0.945c0.121 0.139 0.216 0.242 0.286 0.311l0.26 0.249c0.166 0.166 0.41 0.365 0.732 0.597s0.678 0.46 1.069 0.686c0.391 0.225 0.846 0.408 1.365 0.55s1.024 0.199 1.516 0.172h1.194c0.242-0.021 0.426-0.097 0.55-0.228l0.041-0.052c0.028-0.041 0.054-0.105 0.078-0.192s0.036-0.182 0.036-0.285c-0.007-0.298 0.016-0.566 0.067-0.805s0.111-0.419 0.177-0.54c0.066-0.121 0.14-0.223 0.223-0.306s0.142-0.133 0.177-0.151c0.035-0.017 0.062-0.029 0.083-0.036 0.166-0.055 0.362-0.002 0.587 0.161s0.436 0.364 0.633 0.602c0.197 0.239 0.434 0.507 0.711 0.805s0.519 0.519 0.727 0.665l0.208 0.125c0.139 0.083 0.319 0.159 0.54 0.228s0.415 0.086 0.581 0.052l2.658-0.041c0.263 0 0.467-0.044 0.613-0.13s0.232-0.182 0.26-0.285c0.028-0.104 0.029-0.221 0.005-0.353s-0.049-0.223-0.073-0.275z"></path>
</symbol>


  </defs>
</svg>
